<svg xmlns="http://www.w3.org/2000/svg" viewBox="0 0 80 60"><title>blog-featured-posts-layout--carousel</title><rect width="80" height="60" fill="#fff"/><rect x="9" y="10" width="30" height="40" fill="#ddd"/><rect x="12" y="37" width="10" height="1" fill="#fff"/><rect x="12" y="41" width="24" height="2" fill="#fff"/><rect x="12" y="45" width="20" height="2" fill="#fff"/><rect x="41" y="10" width="30" height="40" fill="#ddd"/><rect x="44" y="37" width="10" height="1" fill="#fff"/><rect x="44" y="41" width="24" height="2" fill="#fff"/><rect x="44" y="45" width="20" height="2" fill="#fff"/><polygon points="3.71 30.71 5.83 32.83 6.54 32.12 4.41 30 6.54 27.88 5.83 27.17 3.71 29.29 3 30 3.71 30.71" fill="#ddd"/><polygon points="76.29 30.71 74.17 32.83 73.46 32.12 75.59 30 73.46 27.88 74.17 27.17 76.29 29.29 77 30 76.29 30.71" fill="#ddd"/></svg>