<svg xmlns="http://www.w3.org/2000/svg" viewBox="0 0 64 64"><title>filter</title><rect x="2" y="29" width="60" height="6" rx="2"/><rect x="2" y="7" width="60" height="6" rx="2"/><rect x="2" y="51" width="60" height="6" rx="2"/><circle cx="37" cy="10" r="6" fill="#fff"/><path d="M37,7a3,3,0,1,1-3,3,3,3,0,0,1,3-3m0-6a9,9,0,1,0,9,9,9,9,0,0,0-9-9Z"/><circle cx="17" cy="32" r="6" fill="#fff"/><path d="M17,29a3,3,0,1,1-3,3,3,3,0,0,1,3-3m0-6a9,9,0,1,0,9,9,9,9,0,0,0-9-9Z"/><circle cx="47" cy="54" r="6" fill="#fff"/><path d="M47,51a3,3,0,1,1-3,3,3,3,0,0,1,3-3m0-6a9,9,0,1,0,9,9,9,9,0,0,0-9-9Z"/></svg>