<svg xmlns="http://www.w3.org/2000/svg" viewBox="0 0 80 60"><title>preloader-screen--progress-image</title><rect width="80" height="60" fill="#fff"/><path d="M55,15l-7.69,1.92A14.94,14.94,0,0,0,40,15v7.85Z" fill="#eee"/><path d="M25.42,26.47a15,15,0,0,0,3.87,14l8.23-6.62a.83.83,0,0,0,.14-1.15l-3.23-4.27a2,2,0,0,1,.36-2.81l.31-.19L40,22.87V15A15,15,0,0,0,25.42,26.47Z" fill="#ccc"/><path d="M32.69,43.08A14.94,14.94,0,0,0,40,45V37.13L25,45Z" fill="#ccc"/><path d="M54.58,33.53a15,15,0,0,0-3.87-14l-8.23,6.62a.83.83,0,0,0-.14,1.15l3.23,4.27a2,2,0,0,1-.36,2.81l-.31.19L40,37.13V45A15,15,0,0,0,54.58,33.53Z" fill="#eee"/></svg>